<svg width="70" height="70" viewBox="0 0 70 70" fill="none" xmlns="http://www.w3.org/2000/svg">
<path fill-rule="evenodd" clip-rule="evenodd" d="M70 35C70 54.3299 54.3299 70 35 70C15.67 70 0 54.3299 0 35C0 15.67 15.67 0 35 0C54.3299 0 70 15.67 70 35Z" fill="#0D0D0D"/>
<path d="M44.2864 13.6111H41.4082V27.0395L39.6984 29.9167L45.2915 32.6567L44.2864 13.6111Z" fill="white"/>
<path d="M47.1644 27.0395V13.6111H44.2861V32.6567L48.8742 29.9167L47.1644 27.0395Z" fill="#D0E0E8"/>
<path d="M44.2863 29.9167H39.6982L35.8126 36.4547V37.7056L44.2863 38.3297L45.2913 34.4321L44.2863 29.9167Z" fill="#90E094"/>
<path d="M48.8742 29.9167H44.2861V38.3297L52.7598 37.7056V36.4547L48.8742 29.9167Z" fill="#5FA88E"/>
<path d="M53.7828 41.473H17.8179V47.0472L35.0001 48.9818L53.7828 47.0472V41.473Z" fill="#F8F1B1"/>
<path d="M17.8179 47.0471H53.7828V52.6214H17.8179V47.0471Z" fill="#F8E79A"/>
<path d="M22.9529 43.0386H56.389V37.7056H22.9529C17.7936 37.7056 13.6112 41.8879 13.6112 47.0472L16.0247 49.3268L18.9442 47.0472C18.9443 44.8333 20.739 43.0386 22.9529 43.0386V43.0386Z" fill="#5FCEF3"/>
<path d="M13.6112 47.0472C13.6112 52.2065 17.7936 56.3889 22.9529 56.3889H56.389V51.0558H22.9529C20.739 51.0558 18.9443 49.2611 18.9443 47.0472H13.6112Z" fill="#6CA3FC"/>
<path d="M30.7749 13.6111H27.8967V23.1761C25.2251 24.2789 23.325 26.8701 23.2299 29.9167L30.7749 32.8597L31.5922 26.2915L30.7749 13.6111Z" fill="white"/>
<path d="M33.653 23.1761V13.6111H30.7748V32.8597L38.3198 29.9167C38.2246 26.8701 36.3244 24.2789 33.653 23.1761V23.1761Z" fill="#D0E0E8"/>
<path d="M23.23 29.9167C23.2275 29.9964 23.226 30.0763 23.226 30.1565C23.226 34.3258 26.6058 37.7056 30.775 37.7056L31.5923 32.8597L30.775 29.9167H23.23Z" fill="#F2D07F"/>
<path d="M38.3196 29.9167H30.7747V37.7056C34.9439 37.7056 38.3237 34.3258 38.3237 30.1566C38.3237 30.0763 38.3221 29.9964 38.3196 29.9167V29.9167Z" fill="#EAA180"/>
</svg>
